<svg height="512pt" viewBox="0 0 512 512" width="512pt" xmlns="http://www.w3.org/2000/svg"><path d="m512 256c0 141.386719-114.613281 256-256 256s-256-114.613281-256-256 114.613281-256 256-256 256 114.613281 256 256zm0 0" fill="#4a7aff"/><path d="m512 256c0-1.296875-.03125-2.589844-.050781-3.882812l-167.113281-167.113282-218.453126 308.523438 118.207032 118.207031c3.785156.164063 7.585937.265625 11.410156.265625 141.386719 0 256-114.613281 256-256zm0 0" fill="#0053bf"/><path d="m167.164062 125.785156h218.453126v309.214844h-218.453126zm0 0" fill="#b5efff"/><path d="m270.476562 125.785156h115.140626v309.214844h-115.140626zm0 0" fill="#80dbff"/><path d="m126.382812 85.003906h218.453126v308.523438h-218.453126zm0 0" fill="#fff"/><path d="m237.144531 85.003906h107.691407v308.523438h-107.691407zm0 0" fill="#dce1eb"/><path d="m254.3125 161.683594c0 31.800781-25.777344 57.582031-57.578125 57.582031s-57.578125-25.78125-57.578125-57.582031c0-31.796875 25.777344-57.578125 57.578125-57.578125s57.578125 25.78125 57.578125 57.578125zm0 0" fill="#b5efff"/><path d="m196.734375 104.105469c-.023437 0-.042969.003906-.066406.003906v115.152344h.066406c31.800781 0 57.578125-25.777344 57.578125-57.578125 0-31.796875-25.777344-57.578125-57.578125-57.578125zm0 0" fill="#80dbff"/><path d="m221.746094 149.640625c0 13.8125-11.199219 25.007813-25.011719 25.007813s-25.011719-11.195313-25.011719-25.007813c0-13.816406 11.199219-25.011719 25.011719-25.011719s25.011719 11.195313 25.011719 25.011719zm0 0" fill="#faa68e"/><path d="m196.734375 124.628906c-.023437 0-.046875 0-.066406 0v50.019532c.019531 0 .042969.003906.066406.003906 13.8125 0 25.011719-11.199219 25.011719-25.011719s-11.199219-25.011719-25.011719-25.011719zm0 0" fill="#d47f6c"/><path d="m156.964844 203.320312c10.335937 9.875 24.34375 15.945313 39.769531 15.945313 15.421875 0 29.433594-6.066406 39.769531-15.945313-6.332031-15.757812-21.746094-26.890624-39.769531-26.890624s-33.4375 11.132812-39.769531 26.890624zm0 0" fill="#ff7045"/><path d="m236.503906 203.320312c-6.332031-15.757812-21.746094-26.894531-39.769531-26.894531-.023437 0-.046875.003907-.066406.003907v42.832031h.066406c15.425781.003906 29.433594-6.0625 39.769531-15.941407zm0 0" fill="#de4726"/><path d="m152.941406 248h165.335938v28h-165.335938zm0 0" fill="#707789"/><path d="m237.144531 248h81.132813v28h-81.132813zm0 0" fill="#555a66"/><path d="m152.941406 290.734375h165.335938v28h-165.335938zm0 0" fill="#707789"/><path d="m152.941406 333.472656h165.335938v28h-165.335938zm0 0" fill="#707789"/><g fill="#555a66"><path d="m237.144531 290.734375h81.132813v28h-81.132813zm0 0"/><path d="m237.144531 333.472656h81.132813v28h-81.132813zm0 0"/></g></svg>